<svg width="247" height="343" viewBox="0 0 247 343" fill="none" xmlns="http://www.w3.org/2000/svg">
<g clip-path="url(#clip0_1_289)">
<path d="M35.1666 42.8301H37.7112V45.3746H35.1666V42.8301Z" fill="#D3D9E6"/>
<path d="M47.8894 42.8301H50.434V45.3746H47.8894V42.8301Z" fill="#D3D9E6"/>
<path d="M60.6122 42.8301H63.1567V45.3746H60.6122V42.8301Z" fill="#D3D9E6"/>
<path d="M73.335 42.8301H75.8795V45.3746H73.335V42.8301Z" fill="#D3D9E6"/>
<path d="M86.0577 42.8301H88.6023V45.3746H86.0577V42.8301Z" fill="#D3D9E6"/>
<path d="M98.7805 42.8301H101.325V45.3746H98.7805V42.8301Z" fill="#D3D9E6"/>
<path d="M111.503 42.8301H114.048V45.3746H111.503V42.8301Z" fill="#D3D9E6"/>
<path d="M124.226 42.8301H126.771V45.3746H124.226V42.8301Z" fill="#D3D9E6"/>
<path d="M136.949 42.8301H139.493V45.3746H136.949V42.8301Z" fill="#D3D9E6"/>
<path d="M149.672 42.8301H152.216V45.3746H149.672V42.8301Z" fill="#D3D9E6"/>
<path d="M162.394 42.8301H164.939V45.3746H162.394V42.8301Z" fill="#D3D9E6"/>
<path d="M175.117 42.8301H177.662V45.3746H175.117V42.8301Z" fill="#D3D9E6"/>
<path d="M187.84 42.8301H190.384V45.3746H187.84V42.8301Z" fill="#D3D9E6"/>
<path d="M200.563 42.8301H203.107V45.3746H200.563V42.8301Z" fill="#D3D9E6"/>
<path d="M213.285 42.8301H215.83V45.3746H213.285V42.8301Z" fill="#D3D9E6"/>
<path d="M35.1666 55.553H37.7112V58.0975H35.1666V55.553Z" fill="#D3D9E6"/>
<path d="M47.8894 55.553H50.434V58.0975H47.8894V55.553Z" fill="#D3D9E6"/>
<path d="M60.6122 55.553H63.1567V58.0975H60.6122V55.553Z" fill="#D3D9E6"/>
<path d="M73.335 55.553H75.8795V58.0975H73.335V55.553Z" fill="#D3D9E6"/>
<path d="M86.0577 55.553H88.6023V58.0975H86.0577V55.553Z" fill="#D3D9E6"/>
<path d="M98.7805 55.553H101.325V58.0975H98.7805V55.553Z" fill="#D3D9E6"/>
<path d="M111.503 55.553H114.048V58.0975H111.503V55.553Z" fill="#D3D9E6"/>
<path d="M124.226 55.553H126.771V58.0975H124.226V55.553Z" fill="#D3D9E6"/>
<path d="M136.949 55.553H139.493V58.0975H136.949V55.553Z" fill="#D3D9E6"/>
<path d="M149.672 55.553H152.216V58.0975H149.672V55.553Z" fill="#D3D9E6"/>
<path d="M162.394 55.553H164.939V58.0975H162.394V55.553Z" fill="#D3D9E6"/>
<path d="M175.117 55.553H177.662V58.0975H175.117V55.553Z" fill="#D3D9E6"/>
<path d="M187.84 55.553H190.384V58.0975H187.84V55.553Z" fill="#D3D9E6"/>
<path d="M200.563 55.553H203.107V58.0975H200.563V55.553Z" fill="#D3D9E6"/>
<path d="M213.285 55.553H215.83V58.0975H213.285V55.553Z" fill="#D3D9E6"/>
<path d="M35.1666 68.2756H37.7112V70.8202H35.1666V68.2756Z" fill="#D3D9E6"/>
<path d="M47.8894 68.2756H50.434V70.8202H47.8894V68.2756Z" fill="#D3D9E6"/>
<path d="M60.6122 68.2756H63.1567V70.8202H60.6122V68.2756Z" fill="#D3D9E6"/>
<path d="M73.335 68.2756H75.8795V70.8202H73.335V68.2756Z" fill="#D3D9E6"/>
<path d="M86.0577 68.2756H88.6023V70.8202H86.0577V68.2756Z" fill="#D3D9E6"/>
<path d="M98.7805 68.2756H101.325V70.8202H98.7805V68.2756Z" fill="#D3D9E6"/>
<path d="M111.503 68.2756H114.048V70.8202H111.503V68.2756Z" fill="#D3D9E6"/>
<path d="M124.226 68.2756H126.771V70.8202H124.226V68.2756Z" fill="#D3D9E6"/>
<path d="M136.949 68.2756H139.493V70.8202H136.949V68.2756Z" fill="#D3D9E6"/>
<path d="M149.672 68.2756H152.216V70.8202H149.672V68.2756Z" fill="#D3D9E6"/>
<path d="M162.394 68.2756H164.939V70.8202H162.394V68.2756Z" fill="#D3D9E6"/>
<path d="M175.117 68.2756H177.662V70.8202H175.117V68.2756Z" fill="#D3D9E6"/>
<path d="M187.84 68.2756H190.384V70.8202H187.84V68.2756Z" fill="#D3D9E6"/>
<path d="M200.563 68.2756H203.107V70.8202H200.563V68.2756Z" fill="#D3D9E6"/>
<path d="M213.285 68.2756H215.83V70.8202H213.285V68.2756Z" fill="#D3D9E6"/>
<path d="M35.1666 80.9983H37.7112V83.5429H35.1666V80.9983Z" fill="#D3D9E6"/>
<path d="M47.8894 80.9983H50.434V83.5429H47.8894V80.9983Z" fill="#D3D9E6"/>
<path d="M60.6122 80.9983H63.1567V83.5429H60.6122V80.9983Z" fill="#D3D9E6"/>
<path d="M73.335 80.9983H75.8795V83.5429H73.335V80.9983Z" fill="#D3D9E6"/>
<path d="M86.0577 80.9983H88.6023V83.5429H86.0577V80.9983Z" fill="#D3D9E6"/>
<path d="M98.7805 80.9983H101.325V83.5429H98.7805V80.9983Z" fill="#D3D9E6"/>
<path d="M111.503 80.9983H114.048V83.5429H111.503V80.9983Z" fill="#D3D9E6"/>
<path d="M124.226 80.9983H126.771V83.5429H124.226V80.9983Z" fill="#D3D9E6"/>
<path d="M136.949 80.9983H139.493V83.5429H136.949V80.9983Z" fill="#D3D9E6"/>
<path d="M149.672 80.9983H152.216V83.5429H149.672V80.9983Z" fill="#D3D9E6"/>
<path d="M162.394 80.9983H164.939V83.5429H162.394V80.9983Z" fill="#D3D9E6"/>
<path d="M175.117 80.9983H177.662V83.5429H175.117V80.9983Z" fill="#D3D9E6"/>
<path d="M187.84 80.9983H190.384V83.5429H187.84V80.9983Z" fill="#D3D9E6"/>
<path d="M200.563 80.9983H203.107V83.5429H200.563V80.9983Z" fill="#D3D9E6"/>
<path d="M213.285 80.9983H215.83V83.5429H213.285V80.9983Z" fill="#D3D9E6"/>
<path d="M35.1666 93.7212H37.7112V96.2657H35.1666V93.7212Z" fill="#D3D9E6"/>
<path d="M47.8894 93.7212H50.434V96.2657H47.8894V93.7212Z" fill="#D3D9E6"/>
<path d="M60.6122 93.7212H63.1567V96.2657H60.6122V93.7212Z" fill="#D3D9E6"/>
<path d="M73.335 93.7212H75.8795V96.2657H73.335V93.7212Z" fill="#D3D9E6"/>
<path d="M86.0577 93.7212H88.6023V96.2657H86.0577V93.7212Z" fill="#D3D9E6"/>
<path d="M98.7805 93.7212H101.325V96.2657H98.7805V93.7212Z" fill="#D3D9E6"/>
<path d="M111.503 93.7212H114.048V96.2657H111.503V93.7212Z" fill="#D3D9E6"/>
<path d="M124.226 93.7212H126.771V96.2657H124.226V93.7212Z" fill="#D3D9E6"/>
<path d="M136.949 93.7212H139.493V96.2657H136.949V93.7212Z" fill="#D3D9E6"/>
<path d="M149.672 93.7212H152.216V96.2657H149.672V93.7212Z" fill="#D3D9E6"/>
<path d="M162.394 93.7212H164.939V96.2657H162.394V93.7212Z" fill="#D3D9E6"/>
<path d="M175.117 93.7212H177.662V96.2657H175.117V93.7212Z" fill="#D3D9E6"/>
<path d="M187.84 93.7212H190.384V96.2657H187.84V93.7212Z" fill="#D3D9E6"/>
<path d="M200.563 93.7212H203.107V96.2657H200.563V93.7212Z" fill="#D3D9E6"/>
<path d="M213.285 93.7212H215.83V96.2657H213.285V93.7212Z" fill="#D3D9E6"/>
<path d="M35.1666 106.444H37.7112V108.989H35.1666V106.444Z" fill="#D3D9E6"/>
<path d="M47.8894 106.444H50.434V108.989H47.8894V106.444Z" fill="#D3D9E6"/>
<path d="M60.6122 106.444H63.1567V108.989H60.6122V106.444Z" fill="#D3D9E6"/>
<path d="M73.335 106.444H75.8795V108.989H73.335V106.444Z" fill="#D3D9E6"/>
<path d="M86.0577 106.444H88.6023V108.989H86.0577V106.444Z" fill="#D3D9E6"/>
<path d="M98.7805 106.444H101.325V108.989H98.7805V106.444Z" fill="#D3D9E6"/>
<path d="M111.503 106.444H114.048V108.989H111.503V106.444Z" fill="#D3D9E6"/>
<path d="M124.226 106.444H126.771V108.989H124.226V106.444Z" fill="#D3D9E6"/>
<path d="M136.949 106.444H139.493V108.989H136.949V106.444Z" fill="#D3D9E6"/>
<path d="M149.672 106.444H152.216V108.989H149.672V106.444Z" fill="#D3D9E6"/>
<path d="M162.394 106.444H164.939V108.989H162.394V106.444Z" fill="#D3D9E6"/>
<path d="M175.117 106.444H177.662V108.989H175.117V106.444Z" fill="#D3D9E6"/>
<path d="M187.84 106.444H190.384V108.989H187.84V106.444Z" fill="#D3D9E6"/>
<path d="M200.563 106.444H203.107V108.989H200.563V106.444Z" fill="#D3D9E6"/>
<path d="M213.285 106.444H215.83V108.989H213.285V106.444Z" fill="#D3D9E6"/>
<path d="M35.1666 119.167H37.7112V121.711H35.1666V119.167Z" fill="#D3D9E6"/>
<path d="M47.8894 119.167H50.434V121.711H47.8894V119.167Z" fill="#D3D9E6"/>
<path d="M60.6122 119.167H63.1567V121.711H60.6122V119.167Z" fill="#D3D9E6"/>
<path d="M73.335 119.167H75.8795V121.711H73.335V119.167Z" fill="#D3D9E6"/>
<path d="M86.0577 119.167H88.6023V121.711H86.0577V119.167Z" fill="#D3D9E6"/>
<path d="M98.7805 119.167H101.325V121.711H98.7805V119.167Z" fill="#D3D9E6"/>
<path d="M111.503 119.167H114.048V121.711H111.503V119.167Z" fill="#D3D9E6"/>
<path d="M124.226 119.167H126.771V121.711H124.226V119.167Z" fill="#D3D9E6"/>
<path d="M136.949 119.167H139.493V121.711H136.949V119.167Z" fill="#D3D9E6"/>
<path d="M149.672 119.167H152.216V121.711H149.672V119.167Z" fill="#D3D9E6"/>
<path d="M162.394 119.167H164.939V121.711H162.394V119.167Z" fill="#D3D9E6"/>
<path d="M175.117 119.167H177.662V121.711H175.117V119.167Z" fill="#D3D9E6"/>
<path d="M187.84 119.167H190.384V121.711H187.84V119.167Z" fill="#D3D9E6"/>
<path d="M200.563 119.167H203.107V121.711H200.563V119.167Z" fill="#D3D9E6"/>
<path d="M213.285 119.167H215.83V121.711H213.285V119.167Z" fill="#D3D9E6"/>
<path d="M35.1666 131.889H37.7112V134.434H35.1666V131.889Z" fill="#D3D9E6"/>
<path d="M47.8894 131.889H50.434V134.434H47.8894V131.889Z" fill="#D3D9E6"/>
<path d="M60.6122 131.889H63.1567V134.434H60.6122V131.889Z" fill="#D3D9E6"/>
<path d="M73.335 131.889H75.8795V134.434H73.335V131.889Z" fill="#D3D9E6"/>
<path d="M86.0577 131.889H88.6023V134.434H86.0577V131.889Z" fill="#D3D9E6"/>
<path d="M98.7805 131.889H101.325V134.434H98.7805V131.889Z" fill="#D3D9E6"/>
<path d="M111.503 131.889H114.048V134.434H111.503V131.889Z" fill="#D3D9E6"/>
<path d="M124.226 131.889H126.771V134.434H124.226V131.889Z" fill="#D3D9E6"/>
<path d="M136.949 131.889H139.493V134.434H136.949V131.889Z" fill="#D3D9E6"/>
<path d="M149.672 131.889H152.216V134.434H149.672V131.889Z" fill="#D3D9E6"/>
<path d="M162.394 131.889H164.939V134.434H162.394V131.889Z" fill="#D3D9E6"/>
<path d="M175.117 131.889H177.662V134.434H175.117V131.889Z" fill="#D3D9E6"/>
<path d="M187.84 131.889H190.384V134.434H187.84V131.889Z" fill="#D3D9E6"/>
<path d="M200.563 131.889H203.107V134.434H200.563V131.889Z" fill="#D3D9E6"/>
<path d="M213.285 131.889H215.83V134.434H213.285V131.889Z" fill="#D3D9E6"/>
<path d="M35.1666 144.612H37.7112V147.157H35.1666V144.612Z" fill="#D3D9E6"/>
<path d="M47.8894 144.612H50.434V147.157H47.8894V144.612Z" fill="#D3D9E6"/>
<path d="M60.6122 144.612H63.1567V147.157H60.6122V144.612Z" fill="#D3D9E6"/>
<path d="M73.335 144.612H75.8795V147.157H73.335V144.612Z" fill="#D3D9E6"/>
<path d="M86.0577 144.612H88.6023V147.157H86.0577V144.612Z" fill="#D3D9E6"/>
<path d="M98.7805 144.612H101.325V147.157H98.7805V144.612Z" fill="#D3D9E6"/>
<path d="M111.503 144.612H114.048V147.157H111.503V144.612Z" fill="#D3D9E6"/>
<path d="M124.226 144.612H126.771V147.157H124.226V144.612Z" fill="#D3D9E6"/>
<path d="M136.949 144.612H139.493V147.157H136.949V144.612Z" fill="#D3D9E6"/>
<path d="M149.672 144.612H152.216V147.157H149.672V144.612Z" fill="#D3D9E6"/>
<path d="M162.394 144.612H164.939V147.157H162.394V144.612Z" fill="#D3D9E6"/>
<path d="M175.117 144.612H177.662V147.157H175.117V144.612Z" fill="#D3D9E6"/>
<path d="M187.84 144.612H190.384V147.157H187.84V144.612Z" fill="#D3D9E6"/>
<path d="M200.563 144.612H203.107V147.157H200.563V144.612Z" fill="#D3D9E6"/>
<path d="M213.285 144.612H215.83V147.157H213.285V144.612Z" fill="#D3D9E6"/>
<path d="M35.1666 157.335H37.7112V159.88H35.1666V157.335Z" fill="#D3D9E6"/>
<path d="M47.8894 157.335H50.434V159.88H47.8894V157.335Z" fill="#D3D9E6"/>
<path d="M60.6122 157.335H63.1567V159.88H60.6122V157.335Z" fill="#D3D9E6"/>
<path d="M73.335 157.335H75.8795V159.88H73.335V157.335Z" fill="#D3D9E6"/>
<path d="M86.0577 157.335H88.6023V159.88H86.0577V157.335Z" fill="#D3D9E6"/>
<path d="M98.7805 157.335H101.325V159.88H98.7805V157.335Z" fill="#D3D9E6"/>
<path d="M111.503 157.335H114.048V159.88H111.503V157.335Z" fill="#D3D9E6"/>
<path d="M124.226 157.335H126.771V159.88H124.226V157.335Z" fill="#D3D9E6"/>
<path d="M136.949 157.335H139.493V159.88H136.949V157.335Z" fill="#D3D9E6"/>
<path d="M149.672 157.335H152.216V159.88H149.672V157.335Z" fill="#D3D9E6"/>
<path d="M162.394 157.335H164.939V159.88H162.394V157.335Z" fill="#D3D9E6"/>
<path d="M175.117 157.335H177.662V159.88H175.117V157.335Z" fill="#D3D9E6"/>
<path d="M187.84 157.335H190.384V159.88H187.84V157.335Z" fill="#D3D9E6"/>
<path d="M200.563 157.335H203.107V159.88H200.563V157.335Z" fill="#D3D9E6"/>
<path d="M213.285 157.335H215.83V159.88H213.285V157.335Z" fill="#D3D9E6"/>
<path d="M35.1666 170.058H37.7112V172.602H35.1666V170.058Z" fill="#D3D9E6"/>
<path d="M47.8894 170.058H50.434V172.602H47.8894V170.058Z" fill="#D3D9E6"/>
<path d="M60.6122 170.058H63.1567V172.602H60.6122V170.058Z" fill="#D3D9E6"/>
<path d="M73.335 170.058H75.8795V172.602H73.335V170.058Z" fill="#D3D9E6"/>
<path d="M86.0577 170.058H88.6023V172.602H86.0577V170.058Z" fill="#D3D9E6"/>
<path d="M98.7805 170.058H101.325V172.602H98.7805V170.058Z" fill="#D3D9E6"/>
<path d="M111.503 170.058H114.048V172.602H111.503V170.058Z" fill="#D3D9E6"/>
<path d="M124.226 170.058H126.771V172.602H124.226V170.058Z" fill="#D3D9E6"/>
<path d="M136.949 170.058H139.493V172.602H136.949V170.058Z" fill="#D3D9E6"/>
<path d="M149.672 170.058H152.216V172.602H149.672V170.058Z" fill="#D3D9E6"/>
<path d="M162.394 170.058H164.939V172.602H162.394V170.058Z" fill="#D3D9E6"/>
<path d="M175.117 170.058H177.662V172.602H175.117V170.058Z" fill="#D3D9E6"/>
<path d="M187.84 170.058H190.384V172.602H187.84V170.058Z" fill="#D3D9E6"/>
<path d="M200.563 170.058H203.107V172.602H200.563V170.058Z" fill="#D3D9E6"/>
<path d="M213.285 170.058H215.83V172.602H213.285V170.058Z" fill="#D3D9E6"/>
<path d="M35.1666 182.781H37.7112V185.325H35.1666V182.781Z" fill="#D3D9E6"/>
<path d="M47.8894 182.781H50.434V185.325H47.8894V182.781Z" fill="#D3D9E6"/>
<path d="M60.6122 182.781H63.1567V185.325H60.6122V182.781Z" fill="#D3D9E6"/>
<path d="M73.335 182.781H75.8795V185.325H73.335V182.781Z" fill="#D3D9E6"/>
<path d="M86.0577 182.781H88.6023V185.325H86.0577V182.781Z" fill="#D3D9E6"/>
<path d="M98.7805 182.781H101.325V185.325H98.7805V182.781Z" fill="#D3D9E6"/>
<path d="M111.503 182.781H114.048V185.325H111.503V182.781Z" fill="#D3D9E6"/>
<path d="M124.226 182.781H126.771V185.325H124.226V182.781Z" fill="#D3D9E6"/>
<path d="M136.949 182.781H139.493V185.325H136.949V182.781Z" fill="#D3D9E6"/>
<path d="M149.672 182.781H152.216V185.325H149.672V182.781Z" fill="#D3D9E6"/>
<path d="M162.394 182.781H164.939V185.325H162.394V182.781Z" fill="#D3D9E6"/>
<path d="M175.117 182.781H177.662V185.325H175.117V182.781Z" fill="#D3D9E6"/>
<path d="M187.84 182.781H190.384V185.325H187.84V182.781Z" fill="#D3D9E6"/>
<path d="M200.563 182.781H203.107V185.325H200.563V182.781Z" fill="#D3D9E6"/>
<path d="M213.285 182.781H215.83V185.325H213.285V182.781Z" fill="#D3D9E6"/>
<path d="M35.1666 195.503H37.7112V198.048H35.1666V195.503Z" fill="#D3D9E6"/>
<path d="M47.8894 195.503H50.434V198.048H47.8894V195.503Z" fill="#D3D9E6"/>
<path d="M60.6122 195.503H63.1567V198.048H60.6122V195.503Z" fill="#D3D9E6"/>
<path d="M73.335 195.503H75.8795V198.048H73.335V195.503Z" fill="#D3D9E6"/>
<path d="M86.0577 195.503H88.6023V198.048H86.0577V195.503Z" fill="#D3D9E6"/>
<path d="M98.7805 195.503H101.325V198.048H98.7805V195.503Z" fill="#D3D9E6"/>
<path d="M111.503 195.503H114.048V198.048H111.503V195.503Z" fill="#D3D9E6"/>
<path d="M124.226 195.503H126.771V198.048H124.226V195.503Z" fill="#D3D9E6"/>
<path d="M136.949 195.503H139.493V198.048H136.949V195.503Z" fill="#D3D9E6"/>
<path d="M149.672 195.503H152.216V198.048H149.672V195.503Z" fill="#D3D9E6"/>
<path d="M162.394 195.503H164.939V198.048H162.394V195.503Z" fill="#D3D9E6"/>
<path d="M175.117 195.503H177.662V198.048H175.117V195.503Z" fill="#D3D9E6"/>
<path d="M187.84 195.503H190.384V198.048H187.84V195.503Z" fill="#D3D9E6"/>
<path d="M200.563 195.503H203.107V198.048H200.563V195.503Z" fill="#D3D9E6"/>
<path d="M213.285 195.503H215.83V198.048H213.285V195.503Z" fill="#D3D9E6"/>
<path d="M35.1666 208.226H37.7112V210.771H35.1666V208.226Z" fill="#D3D9E6"/>
<path d="M47.8894 208.226H50.434V210.771H47.8894V208.226Z" fill="#D3D9E6"/>
<path d="M60.6122 208.226H63.1567V210.771H60.6122V208.226Z" fill="#D3D9E6"/>
<path d="M73.335 208.226H75.8795V210.771H73.335V208.226Z" fill="#D3D9E6"/>
<path d="M86.0577 208.226H88.6023V210.771H86.0577V208.226Z" fill="#D3D9E6"/>
<path d="M98.7805 208.226H101.325V210.771H98.7805V208.226Z" fill="#D3D9E6"/>
<path d="M111.503 208.226H114.048V210.771H111.503V208.226Z" fill="#D3D9E6"/>
<path d="M124.226 208.226H126.771V210.771H124.226V208.226Z" fill="#D3D9E6"/>
<path d="M136.949 208.226H139.493V210.771H136.949V208.226Z" fill="#D3D9E6"/>
<path d="M149.672 208.226H152.216V210.771H149.672V208.226Z" fill="#D3D9E6"/>
<path d="M162.394 208.226H164.939V210.771H162.394V208.226Z" fill="#D3D9E6"/>
<path d="M175.117 208.226H177.662V210.771H175.117V208.226Z" fill="#D3D9E6"/>
<path d="M187.84 208.226H190.384V210.771H187.84V208.226Z" fill="#D3D9E6"/>
<path d="M200.563 208.226H203.107V210.771H200.563V208.226Z" fill="#D3D9E6"/>
<path d="M213.285 208.226H215.83V210.771H213.285V208.226Z" fill="#D3D9E6"/>
<path d="M35.1666 220.949H37.7112V223.493H35.1666V220.949Z" fill="#D3D9E6"/>
<path d="M47.8894 220.949H50.434V223.493H47.8894V220.949Z" fill="#D3D9E6"/>
<path d="M60.6122 220.949H63.1567V223.493H60.6122V220.949Z" fill="#D3D9E6"/>
<path d="M73.335 220.949H75.8795V223.493H73.335V220.949Z" fill="#D3D9E6"/>
<path d="M86.0577 220.949H88.6023V223.493H86.0577V220.949Z" fill="#D3D9E6"/>
<path d="M98.7805 220.949H101.325V223.493H98.7805V220.949Z" fill="#D3D9E6"/>
<path d="M111.503 220.949H114.048V223.493H111.503V220.949Z" fill="#D3D9E6"/>
<path d="M124.226 220.949H126.771V223.493H124.226V220.949Z" fill="#D3D9E6"/>
<path d="M136.949 220.949H139.493V223.493H136.949V220.949Z" fill="#D3D9E6"/>
<path d="M149.672 220.949H152.216V223.493H149.672V220.949Z" fill="#D3D9E6"/>
<path d="M162.394 220.949H164.939V223.493H162.394V220.949Z" fill="#D3D9E6"/>
<path d="M175.117 220.949H177.662V223.493H175.117V220.949Z" fill="#D3D9E6"/>
<path d="M187.84 220.949H190.384V223.493H187.84V220.949Z" fill="#D3D9E6"/>
<path d="M200.563 220.949H203.107V223.493H200.563V220.949Z" fill="#D3D9E6"/>
<path d="M213.285 220.949H215.83V223.493H213.285V220.949Z" fill="#D3D9E6"/>
<path d="M35.1666 233.672H37.7112V236.216H35.1666V233.672Z" fill="#D3D9E6"/>
<path d="M47.8894 233.672H50.434V236.216H47.8894V233.672Z" fill="#D3D9E6"/>
<path d="M60.6122 233.672H63.1567V236.216H60.6122V233.672Z" fill="#D3D9E6"/>
<path d="M73.335 233.672H75.8795V236.216H73.335V233.672Z" fill="#D3D9E6"/>
<path d="M86.0577 233.672H88.6023V236.216H86.0577V233.672Z" fill="#D3D9E6"/>
<path d="M98.7805 233.672H101.325V236.216H98.7805V233.672Z" fill="#D3D9E6"/>
<path d="M111.503 233.672H114.048V236.216H111.503V233.672Z" fill="#D3D9E6"/>
<path d="M124.226 233.672H126.771V236.216H124.226V233.672Z" fill="#D3D9E6"/>
<path d="M136.949 233.672H139.493V236.216H136.949V233.672Z" fill="#D3D9E6"/>
<path d="M149.672 233.672H152.216V236.216H149.672V233.672Z" fill="#D3D9E6"/>
<path d="M162.394 233.672H164.939V236.216H162.394V233.672Z" fill="#D3D9E6"/>
<path d="M175.117 233.672H177.662V236.216H175.117V233.672Z" fill="#D3D9E6"/>
<path d="M187.84 233.672H190.384V236.216H187.84V233.672Z" fill="#D3D9E6"/>
<path d="M200.563 233.672H203.107V236.216H200.563V233.672Z" fill="#D3D9E6"/>
<path d="M213.285 233.672H215.83V236.216H213.285V233.672Z" fill="#D3D9E6"/>
<path d="M35.1666 246.394H37.7112V248.939H35.1666V246.394Z" fill="#D3D9E6"/>
<path d="M47.8894 246.394H50.434V248.939H47.8894V246.394Z" fill="#D3D9E6"/>
<path d="M60.6122 246.394H63.1567V248.939H60.6122V246.394Z" fill="#D3D9E6"/>
<path d="M73.335 246.394H75.8795V248.939H73.335V246.394Z" fill="#D3D9E6"/>
<path d="M86.0577 246.394H88.6023V248.939H86.0577V246.394Z" fill="#D3D9E6"/>
<path d="M98.7805 246.394H101.325V248.939H98.7805V246.394Z" fill="#D3D9E6"/>
<path d="M111.503 246.394H114.048V248.939H111.503V246.394Z" fill="#D3D9E6"/>
<path d="M124.226 246.394H126.771V248.939H124.226V246.394Z" fill="#D3D9E6"/>
<path d="M136.949 246.394H139.493V248.939H136.949V246.394Z" fill="#D3D9E6"/>
<path d="M149.672 246.394H152.216V248.939H149.672V246.394Z" fill="#D3D9E6"/>
<path d="M162.394 246.394H164.939V248.939H162.394V246.394Z" fill="#D3D9E6"/>
<path d="M175.117 246.394H177.662V248.939H175.117V246.394Z" fill="#D3D9E6"/>
<path d="M187.84 246.394H190.384V248.939H187.84V246.394Z" fill="#D3D9E6"/>
<path d="M200.563 246.394H203.107V248.939H200.563V246.394Z" fill="#D3D9E6"/>
<path d="M213.285 246.394H215.83V248.939H213.285V246.394Z" fill="#D3D9E6"/>
<path d="M35.1666 259.117H37.7112V261.662H35.1666V259.117Z" fill="#D3D9E6"/>
<path d="M47.8894 259.117H50.434V261.662H47.8894V259.117Z" fill="#D3D9E6"/>
<path d="M60.6122 259.117H63.1567V261.662H60.6122V259.117Z" fill="#D3D9E6"/>
<path d="M73.335 259.117H75.8795V261.662H73.335V259.117Z" fill="#D3D9E6"/>
<path d="M86.0577 259.117H88.6023V261.662H86.0577V259.117Z" fill="#D3D9E6"/>
<path d="M98.7805 259.117H101.325V261.662H98.7805V259.117Z" fill="#D3D9E6"/>
<path d="M111.503 259.117H114.048V261.662H111.503V259.117Z" fill="#D3D9E6"/>
<path d="M124.226 259.117H126.771V261.662H124.226V259.117Z" fill="#D3D9E6"/>
<path d="M136.949 259.117H139.493V261.662H136.949V259.117Z" fill="#D3D9E6"/>
<path d="M149.672 259.117H152.216V261.662H149.672V259.117Z" fill="#D3D9E6"/>
<path d="M162.394 259.117H164.939V261.662H162.394V259.117Z" fill="#D3D9E6"/>
<path d="M175.117 259.117H177.662V261.662H175.117V259.117Z" fill="#D3D9E6"/>
<path d="M187.84 259.117H190.384V261.662H187.84V259.117Z" fill="#D3D9E6"/>
<path d="M200.563 259.117H203.107V261.662H200.563V259.117Z" fill="#D3D9E6"/>
<path d="M213.285 259.117H215.83V261.662H213.285V259.117Z" fill="#D3D9E6"/>
<path d="M35.1666 271.84H37.7112V274.384H35.1666V271.84Z" fill="#D3D9E6"/>
<path d="M47.8894 271.84H50.434V274.384H47.8894V271.84Z" fill="#D3D9E6"/>
<path d="M60.6122 271.84H63.1567V274.384H60.6122V271.84Z" fill="#D3D9E6"/>
<path d="M73.335 271.84H75.8795V274.384H73.335V271.84Z" fill="#D3D9E6"/>
<path d="M86.0577 271.84H88.6023V274.384H86.0577V271.84Z" fill="#D3D9E6"/>
<path d="M98.7805 271.84H101.325V274.384H98.7805V271.84Z" fill="#D3D9E6"/>
<path d="M111.503 271.84H114.048V274.384H111.503V271.84Z" fill="#D3D9E6"/>
<path d="M124.226 271.84H126.771V274.384H124.226V271.84Z" fill="#D3D9E6"/>
<path d="M136.949 271.84H139.493V274.384H136.949V271.84Z" fill="#D3D9E6"/>
<path d="M149.672 271.84H152.216V274.384H149.672V271.84Z" fill="#D3D9E6"/>
<path d="M162.394 271.84H164.939V274.384H162.394V271.84Z" fill="#D3D9E6"/>
<path d="M175.117 271.84H177.662V274.384H175.117V271.84Z" fill="#D3D9E6"/>
<path d="M187.84 271.84H190.384V274.384H187.84V271.84Z" fill="#D3D9E6"/>
<path d="M200.563 271.84H203.107V274.384H200.563V271.84Z" fill="#D3D9E6"/>
<path d="M213.285 271.84H215.83V274.384H213.285V271.84Z" fill="#D3D9E6"/>
<path d="M35.1666 284.563H37.7112V287.107H35.1666V284.563Z" fill="#D3D9E6"/>
<path d="M47.8894 284.563H50.434V287.107H47.8894V284.563Z" fill="#D3D9E6"/>
<path d="M60.6122 284.563H63.1567V287.107H60.6122V284.563Z" fill="#D3D9E6"/>
<path d="M73.335 284.563H75.8795V287.107H73.335V284.563Z" fill="#D3D9E6"/>
<path d="M86.0577 284.563H88.6023V287.107H86.0577V284.563Z" fill="#D3D9E6"/>
<path d="M98.7805 284.563H101.325V287.107H98.7805V284.563Z" fill="#D3D9E6"/>
<path d="M111.503 284.563H114.048V287.107H111.503V284.563Z" fill="#D3D9E6"/>
<path d="M124.226 284.563H126.771V287.107H124.226V284.563Z" fill="#D3D9E6"/>
<path d="M136.949 284.563H139.493V287.107H136.949V284.563Z" fill="#D3D9E6"/>
<path d="M149.672 284.563H152.216V287.107H149.672V284.563Z" fill="#D3D9E6"/>
<path d="M162.394 284.563H164.939V287.107H162.394V284.563Z" fill="#D3D9E6"/>
<path d="M175.117 284.563H177.662V287.107H175.117V284.563Z" fill="#D3D9E6"/>
<path d="M187.84 284.563H190.384V287.107H187.84V284.563Z" fill="#D3D9E6"/>
<path d="M200.563 284.563H203.107V287.107H200.563V284.563Z" fill="#D3D9E6"/>
<path d="M213.285 284.563H215.83V287.107H213.285V284.563Z" fill="#D3D9E6"/>
<path d="M35.1666 297.285H37.7112V299.83H35.1666V297.285Z" fill="#D3D9E6"/>
<path d="M47.8894 297.285H50.434V299.83H47.8894V297.285Z" fill="#D3D9E6"/>
<path d="M60.6122 297.285H63.1567V299.83H60.6122V297.285Z" fill="#D3D9E6"/>
<path d="M73.335 297.285H75.8795V299.83H73.335V297.285Z" fill="#D3D9E6"/>
<path d="M86.0577 297.285H88.6023V299.83H86.0577V297.285Z" fill="#D3D9E6"/>
<path d="M98.7805 297.285H101.325V299.83H98.7805V297.285Z" fill="#D3D9E6"/>
<path d="M111.503 297.285H114.048V299.83H111.503V297.285Z" fill="#D3D9E6"/>
<path d="M124.226 297.285H126.771V299.83H124.226V297.285Z" fill="#D3D9E6"/>
<path d="M136.949 297.285H139.493V299.83H136.949V297.285Z" fill="#D3D9E6"/>
<path d="M149.672 297.285H152.216V299.83H149.672V297.285Z" fill="#D3D9E6"/>
<path d="M162.394 297.285H164.939V299.83H162.394V297.285Z" fill="#D3D9E6"/>
<path d="M175.117 297.285H177.662V299.83H175.117V297.285Z" fill="#D3D9E6"/>
<path d="M187.84 297.285H190.384V299.83H187.84V297.285Z" fill="#D3D9E6"/>
<path d="M200.563 297.285H203.107V299.83H200.563V297.285Z" fill="#D3D9E6"/>
<path d="M213.285 297.285H215.83V299.83H213.285V297.285Z" fill="#D3D9E6"/>
</g>
<defs>
<clipPath id="clip0_1_289">
<rect width="185" height="257" fill="white" transform="translate(30.83 42.8301)"/>
</clipPath>
</defs>
</svg>
