<svg width="22" height="22" viewBox="0 0 22 22" fill="none" xmlns="http://www.w3.org/2000/svg">
<g clip-path="url(#clip0_1_1293)">
<path d="M10.5717 15.0116C10.4625 15.0122 10.3543 14.9913 10.2532 14.9501C10.1522 14.9087 10.0602 14.848 9.98274 14.771L5.00574 9.79401C4.92799 9.71689 4.86627 9.62514 4.82417 9.52407C4.78205 9.42298 4.76038 9.31457 4.76038 9.20506C4.76038 9.09556 4.78205 8.98714 4.82417 8.88606C4.86627 8.78497 4.92799 8.69322 5.00574 8.61612C5.16115 8.46162 5.37139 8.37491 5.59054 8.37491C5.80967 8.37491 6.01991 8.46162 6.17534 8.61612L10.5717 13.0125L14.9597 8.61612C15.1152 8.46162 15.3253 8.37491 15.5446 8.37491C15.7637 8.37491 15.9739 8.46162 16.1293 8.61612C16.2071 8.69322 16.2688 8.78497 16.3109 8.88606C16.353 8.98714 16.3748 9.09556 16.3748 9.20506C16.3748 9.31457 16.353 9.42298 16.3109 9.52407C16.2688 9.62514 16.2071 9.71689 16.1293 9.79401L11.1523 14.771C10.9978 14.9243 10.7893 15.0106 10.5717 15.0116Z" fill="white"/>
</g>
<defs>
<clipPath id="clip0_1_1293">
<rect width="21.33" height="21.33" fill="white"/>
</clipPath>
</defs>
</svg>
