<svg width="27" height="27" viewBox="0 0 27 27" fill="none" xmlns="http://www.w3.org/2000/svg">
<g clip-path="url(#clip0_1_1242)">
<path d="M17.5527 11.7516L17.2845 14.0738C17.2734 14.1797 17.2237 14.2779 17.1451 14.3496C17.0663 14.4215 16.9639 14.4617 16.8574 14.463H14.4337L14.4216 21.3477C14.4224 21.4293 14.3911 21.508 14.3344 21.5666C14.2778 21.6253 14.2002 21.6593 14.1186 21.6612H11.6632C11.6224 21.6612 11.582 21.6531 11.5444 21.6371C11.5069 21.6211 11.4729 21.5977 11.4446 21.5683C11.4163 21.5389 11.3943 21.504 11.3798 21.4658C11.3653 21.4277 11.3586 21.3869 11.3603 21.3461V14.463H9.54254C9.48545 14.4625 9.42904 14.4507 9.37652 14.4283C9.324 14.4059 9.27641 14.3733 9.23646 14.3325C9.19651 14.2918 9.16498 14.2435 9.1437 14.1905C9.12239 14.1375 9.11174 14.0809 9.11234 14.0238L9.10325 11.7016C9.10245 11.6443 9.11294 11.5874 9.13414 11.5342C9.15532 11.481 9.18679 11.4324 9.22674 11.3913C9.26668 11.3503 9.31433 11.3175 9.36696 11.2948C9.41959 11.2722 9.47616 11.2601 9.53345 11.2593H11.3603V9.01744C11.3603 6.41506 12.9053 4.99875 15.1714 4.99875H17.0286C17.086 4.99934 17.1427 5.01127 17.1955 5.03383C17.2484 5.0564 17.2961 5.08917 17.3362 5.13026C17.3763 5.17136 17.4079 5.21997 17.4293 5.27331C17.4505 5.32664 17.4611 5.38364 17.4603 5.44106V7.39512C17.4611 7.45254 17.4505 7.50955 17.4293 7.56288C17.4079 7.61621 17.3763 7.66482 17.3362 7.70591C17.2961 7.74701 17.2484 7.77979 17.1955 7.80235C17.1427 7.82492 17.086 7.83684 17.0286 7.83744H15.8894C14.658 7.83744 14.4186 8.44334 14.4186 9.31888V11.2593H17.1255C17.1871 11.2601 17.2477 11.2739 17.3036 11.2998C17.3594 11.3257 17.4091 11.3631 17.4495 11.4096C17.4899 11.4561 17.5199 11.5106 17.5376 11.5696C17.5555 11.6285 17.5606 11.6906 17.5527 11.7516Z" fill="white"/>
</g>
<defs>
<clipPath id="clip0_1_1242">
<rect width="26.66" height="26.66" fill="white"/>
</clipPath>
</defs>
</svg>
