<svg width="32" height="32" viewBox="0 0 32 32" fill="none" xmlns="http://www.w3.org/2000/svg">
<g clip-path="url(#clip0_1_1282)">
<g clip-path="url(#clip1_1_1282)">
<g clip-path="url(#clip2_1_1282)">
<path d="M31.98 7.995H0V23.985H31.98V7.995Z" fill="#3F9C35"/>
<path d="M31.98 7.995H0V18.655H31.98V7.995Z" fill="#ED2939"/>
<path d="M31.98 7.995H0V13.325H31.98V7.995Z" fill="#00B9E4"/>
<path d="M15.457 18.3885C16.7816 18.3885 17.8555 17.3146 17.8555 15.99C17.8555 14.6653 16.7816 13.5915 15.457 13.5915C14.1323 13.5915 13.0585 14.6653 13.0585 15.99C13.0585 17.3146 14.1323 18.3885 15.457 18.3885Z" fill="white"/>
<path d="M15.99 17.9887C17.0938 17.9887 17.9887 17.0939 17.9887 15.99C17.9887 14.8861 17.0938 13.9912 15.99 13.9912C14.8861 13.9912 13.9912 14.8861 13.9912 15.99C13.9912 17.0939 14.8861 17.9887 15.99 17.9887Z" fill="#ED2939"/>
<path d="M18.1221 14.6575L18.377 15.3745L19.0643 15.0478L18.7376 15.735L19.4546 15.99L18.7376 16.245L19.0643 16.9322L18.377 16.6055L18.1221 17.3225L17.8671 16.6055L17.1798 16.9322L17.5065 16.245L16.7896 15.99L17.5065 15.735L17.1798 15.0478L17.8671 15.3745L18.1221 14.6575Z" fill="white"/>
</g>
</g>
</g>
<defs>
<clipPath id="clip0_1_1282">
<rect width="31.98" height="31.98" fill="white"/>
</clipPath>
<clipPath id="clip1_1_1282">
<rect width="31.98" height="31.98" fill="white"/>
</clipPath>
<clipPath id="clip2_1_1282">
<rect width="31.98" height="15.99" fill="white" transform="translate(0 7.995)"/>
</clipPath>
</defs>
</svg>
