<svg width="27" height="27" viewBox="0 0 27 27" fill="none" xmlns="http://www.w3.org/2000/svg">
<g clip-path="url(#clip0_1_1252)">
<path d="M16.6973 4.99875H9.96268C8.64667 5.00035 7.38501 5.52384 6.45444 6.45441C5.52387 7.38498 5.00038 8.64664 4.99878 9.96265V16.6973C5.00038 18.0134 5.52387 19.275 6.45444 20.2056C7.38501 21.1362 8.64667 21.6597 9.96268 21.6612H16.6973C18.0134 21.6597 19.2751 21.1362 20.2056 20.2056C21.1362 19.275 21.6597 18.0134 21.6613 16.6973V9.96265C21.6597 8.64664 21.1362 7.38498 20.2056 6.45441C19.2751 5.52384 18.0134 5.00035 16.6973 4.99875ZM19.9844 16.6973C19.9846 17.129 19.8997 17.5565 19.7346 17.9555C19.5695 18.3543 19.3273 18.7168 19.0221 19.022C18.7168 19.3273 18.3544 19.5695 17.9555 19.7345C17.5566 19.8997 17.1291 19.9846 16.6973 19.9843H9.96268C9.53097 19.9846 9.10345 19.8997 8.70455 19.7345C8.30566 19.5695 7.94322 19.3273 7.63795 19.022C7.33268 18.7168 7.09056 18.3543 6.92544 17.9555C6.76033 17.5565 6.67544 17.129 6.67563 16.6973V9.96265C6.67563 9.09087 7.02194 8.2548 7.63839 7.63836C8.25483 7.02191 9.0909 6.6756 9.96268 6.6756H16.6973C17.5691 6.6756 18.4053 7.02191 19.0217 7.63836C19.6381 8.2548 19.9844 9.09087 19.9844 9.96265V16.6973Z" fill="white"/>
<path d="M13.3294 9.02054C12.4771 9.02054 11.6439 9.27329 10.9352 9.74682C10.2265 10.2204 9.67412 10.8934 9.34795 11.6809C9.02176 12.4683 8.93642 13.3348 9.1027 14.1709C9.26899 15.0068 9.67944 15.7747 10.2821 16.3774C10.8848 16.98 11.6527 17.3905 12.4887 17.5568C13.3246 17.723 14.1911 17.6377 14.9787 17.3115C15.7661 16.9854 16.4391 16.433 16.9127 15.7243C17.3862 15.0156 17.6389 14.1825 17.6389 13.33C17.6373 12.1876 17.1828 11.0924 16.375 10.2845C15.5671 9.47669 14.4719 9.02214 13.3294 9.02054ZM13.3294 15.9643C12.8084 15.9643 12.2991 15.8098 11.8659 15.5203C11.4328 15.2309 11.0951 14.8195 10.8958 14.3382C10.6964 13.8568 10.6442 13.3271 10.7459 12.8162C10.8475 12.3052 11.0984 11.8358 11.4668 11.4674C11.8352 11.099 12.3045 10.8481 12.8155 10.7465C13.3265 10.6449 13.8562 10.697 14.3375 10.8964C14.8188 11.0958 15.2302 11.4334 15.5197 11.8666C15.8091 12.2998 15.9636 12.8091 15.9636 13.33C15.9632 14.0286 15.6856 14.6983 15.1917 15.1923C14.6977 15.6862 14.028 15.9639 13.3294 15.9643Z" fill="white"/>
<path d="M17.6636 10.0853C18.2517 10.0853 18.7285 9.60854 18.7285 9.02042C18.7285 8.4323 18.2517 7.95554 17.6636 7.95554C17.0754 7.95554 16.5986 8.4323 16.5986 9.02042C16.5986 9.60854 17.0754 10.0853 17.6636 10.0853Z" fill="white"/>
</g>
<defs>
<clipPath id="clip0_1_1252">
<rect width="26.66" height="26.66" fill="white"/>
</clipPath>
</defs>
</svg>
