<svg width="27" height="27" viewBox="0 0 27 27" fill="none" xmlns="http://www.w3.org/2000/svg">
<g clip-path="url(#clip0_1_1264)">
<path d="M9.60426 7.27091C9.60426 7.72029 9.471 8.1596 9.22133 8.53325C8.97165 8.9069 8.6168 9.19814 8.20162 9.37011C7.78643 9.54208 7.32957 9.58708 6.88882 9.49941C6.44806 9.41174 6.0432 9.19534 5.72544 8.87757C5.40767 8.5598 5.19127 8.15493 5.10359 7.71419C5.01592 7.27343 5.06093 6.81657 5.2329 6.40138C5.40487 5.98621 5.6961 5.63135 6.06975 5.38168C6.44341 5.13201 6.88271 4.99875 7.33209 4.99875C7.93471 4.99875 8.51265 5.23814 8.93876 5.66425C9.36486 6.09036 9.60426 6.66829 9.60426 7.27091Z" fill="white"/>
<path d="M9.08924 11.0578V21.0962C9.08963 21.1702 9.07539 21.2436 9.04733 21.3121C9.01927 21.3807 8.97794 21.443 8.92571 21.4956C8.87348 21.5481 8.81141 21.5897 8.74302 21.6181C8.67464 21.6466 8.60131 21.6613 8.52725 21.6613H6.1324C6.05835 21.6614 5.98498 21.647 5.91653 21.6187C5.84807 21.5905 5.78587 21.549 5.73351 21.4966C5.68114 21.4442 5.63964 21.382 5.61139 21.3136C5.58315 21.2451 5.56871 21.1718 5.56891 21.0977V11.0578C5.56891 10.9083 5.62827 10.765 5.73395 10.6593C5.83963 10.5537 5.98295 10.4943 6.1324 10.4943H8.52725C8.67644 10.4947 8.81938 10.5542 8.92472 10.6599C9.03007 10.7655 9.08924 10.9086 9.08924 11.0578Z" fill="white"/>
<path d="M21.6078 16.2838V21.1431C21.6081 21.2112 21.5947 21.2787 21.5687 21.3416C21.5429 21.4045 21.5048 21.4617 21.4565 21.51C21.4084 21.5581 21.3512 21.5962 21.2883 21.6222C21.2254 21.6482 21.1579 21.6614 21.0898 21.6613H18.5147C18.4466 21.6614 18.3791 21.6482 18.3162 21.6222C18.2533 21.5962 18.196 21.5581 18.1479 21.51C18.0997 21.4617 18.0616 21.4045 18.0356 21.3416C18.0096 21.2787 17.9964 21.2112 17.9966 21.1431V16.4338C17.9966 15.7309 18.2027 13.3557 16.1592 13.3557C14.5762 13.3557 14.2536 14.9811 14.1901 15.7111V21.1431C14.1901 21.2792 14.1365 21.4099 14.0409 21.5068C13.9455 21.6038 13.8156 21.6593 13.6795 21.6613H11.1923C11.1243 21.6613 11.057 21.6478 10.9942 21.6217C10.9315 21.5957 10.8745 21.5576 10.8265 21.5094C10.7785 21.4613 10.7405 21.4041 10.7146 21.3413C10.6887 21.2784 10.6755 21.2111 10.6757 21.1431V11.0139C10.6755 10.9459 10.6887 10.8786 10.7146 10.8157C10.7405 10.7529 10.7785 10.6958 10.8265 10.6476C10.8745 10.5995 10.9315 10.5613 10.9942 10.5353C11.057 10.5092 11.1243 10.4958 11.1923 10.4958H13.6795C13.817 10.4958 13.9487 10.5504 14.0458 10.6475C14.143 10.7447 14.1975 10.8765 14.1975 11.0139V11.8894C14.7852 11.0078 15.6564 10.3277 17.515 10.3277C21.6321 10.3277 21.6078 14.1722 21.6078 16.2838Z" fill="white"/>
</g>
<defs>
<clipPath id="clip0_1_1264">
<rect width="26.66" height="26.66" fill="white"/>
</clipPath>
</defs>
</svg>
