<svg width="36" height="36" viewBox="0 0 36 36" fill="none" xmlns="http://www.w3.org/2000/svg">
<g clip-path="url(#clip0_1_1319)">
<path d="M17.99 35.98C27.9256 35.98 35.98 27.9256 35.98 17.99C35.98 8.0544 27.9256 0 17.99 0C8.0544 0 0 8.0544 0 17.99C0 27.9256 8.0544 35.98 17.99 35.98Z" fill="#057DAB"/>
<path d="M24.1515 11.917C24.1515 15.2039 21.4401 17.8685 18.0953 17.8685C14.7506 17.8685 12.0391 15.2039 12.0391 11.917C12.0391 8.63002 14.7506 5.96542 18.0953 5.96542C21.4401 5.96542 24.1515 8.63002 24.1515 11.917Z" fill="white"/>
<path d="M4.20862 26.0952C8.30995 23.817 13.0482 22.5169 18.0954 22.5169C23.1426 22.5169 27.8809 23.8171 31.9822 26.0952C30.3814 28.2088 25.363 33.7391 18.0954 33.7391C10.8279 33.7391 5.80942 28.2088 4.20862 26.0952Z" fill="white"/>
</g>
<defs>
<clipPath id="clip0_1_1319">
<rect width="35.98" height="35.98" fill="white"/>
</clipPath>
</defs>
</svg>
