<svg width="114" height="83" viewBox="0 0 114 83" fill="none" xmlns="http://www.w3.org/2000/svg">
<g clip-path="url(#clip0_1_1325)">
<path d="M62.5543 19.503H67.324C68.0154 19.5019 68.7005 19.6361 69.3396 19.8981C69.9787 20.16 70.5595 20.5445 71.0489 21.0294C71.5382 21.5143 71.9265 22.0902 72.1912 22.7242C72.4562 23.3583 72.5924 24.0378 72.5924 24.7241V43.3413L101.316 14.2101C101.804 13.7238 102.385 13.3381 103.024 13.075C103.663 12.8118 104.348 12.6764 105.04 12.6764C105.732 12.6764 106.417 12.8118 107.056 13.075C107.695 13.3381 108.275 13.7238 108.764 14.2101L112.85 18.3375L72.5683 58.4537H67.7985C67.1071 58.4548 66.4222 58.3205 65.783 58.0587C65.1438 57.7967 64.5631 57.4123 64.0736 56.9274C63.5843 56.4424 63.1961 55.8666 62.9313 55.2325C62.6664 54.5985 62.5302 53.919 62.5302 53.2326V19.503H62.5543Z" fill="white"/>
<path d="M41.3194 58.4525H36.4209C35.7294 58.4535 35.0445 58.3192 34.4054 58.0573C33.7662 57.7953 33.1853 57.411 32.696 56.9261C32.2068 56.4412 31.8185 55.8652 31.5536 55.2313C31.2888 54.5972 31.1524 53.9176 31.1524 53.2313V19.5016H36.067C36.7585 19.5007 37.4434 19.6349 38.0825 19.8968C38.7217 20.1588 39.3026 20.5431 39.7919 21.028C40.2812 21.5131 40.6694 22.0889 40.9343 22.723C41.1991 23.3569 41.3355 24.0365 41.3355 24.7228V58.4525H41.3194Z" fill="white"/>
<path d="M10.1908 42.8392V5.52496C10.1919 4.83864 10.0566 4.15886 9.79272 3.52448C9.52882 2.89011 9.14152 2.31359 8.65293 1.82793C8.16436 1.34224 7.5841 0.956951 6.94535 0.694066C6.3066 0.431182 5.62189 0.295867 4.9304 0.295868H0.0078125V53.2254C0.00781169 53.9118 0.144142 54.5913 0.409006 55.2254C0.67387 55.8594 1.06207 56.4353 1.5514 56.9202C2.04073 57.4051 2.62158 57.7896 3.26074 58.0514C3.89989 58.3134 4.58479 58.4477 5.27628 58.4466H10.1023L10.1586 58.3908" fill="white"/>
<path opacity="0.5" d="M10.1919 42.8371L31.1531 19.5016L31.1451 34.686L10.2482 58.3328L10.1919 58.3966V42.8371Z" fill="white"/>
<path opacity="0.5" d="M62.5543 19.4952L41.3276 43.2297L41.3196 43.541V58.454L62.5463 35.1665L62.5543 19.4952Z" fill="white"/>
<path d="M8.30085 82.4283V76.9676H3.94933V82.4283H0V68.5691H3.94933V73.6226H8.30085V68.5691H12.2502V82.4283H8.30085Z" fill="white"/>
<path d="M28.9243 75.4834C28.9418 76.5252 28.7786 77.5621 28.4418 78.549C28.162 79.3823 27.7068 80.147 27.1066 80.7923C26.5345 81.3998 25.8341 81.8742 25.0555 82.1815C24.2215 82.4997 23.3348 82.6595 22.4414 82.6524C21.5511 82.6629 20.6667 82.5059 19.8353 82.1894C19.0619 81.8886 18.3665 81.4194 17.8003 80.8163C17.2085 80.1691 16.7568 79.4084 16.4731 78.581C15.8406 76.5909 15.8406 74.4557 16.4731 72.4657C16.7621 71.6325 17.2192 70.8664 17.8164 70.2145C18.3861 69.6078 19.0838 69.1335 19.8595 68.8252C21.5457 68.2026 23.4015 68.2026 25.0877 68.8252C25.8621 69.1241 26.5579 69.5937 27.1226 70.1985C27.7216 70.8387 28.1767 71.5979 28.4578 72.4257C28.7812 73.4154 28.9387 74.4511 28.9243 75.4914M24.9027 75.5312C24.9641 74.539 24.7381 73.5501 24.2511 72.6812C24.0667 72.3816 23.808 72.134 23.4994 71.9622C23.1911 71.7902 22.8434 71.6997 22.4897 71.6993C22.1306 71.6854 21.7744 71.7669 21.4576 71.9353C21.1408 72.1036 20.8751 72.353 20.6879 72.6573C20.2642 73.5443 20.0445 74.5137 20.0445 75.4954C20.0445 76.477 20.2642 77.4464 20.6879 78.3334C20.8769 78.6374 21.1424 78.8871 21.4584 79.058C21.7744 79.2288 22.13 79.3148 22.4897 79.3075C22.8498 79.3211 23.2071 79.2396 23.525 79.0712C23.843 78.903 24.1102 78.6539 24.2994 78.3494C24.7623 77.4817 24.9712 76.5028 24.9027 75.5234" fill="white"/>
<path d="M43.7969 78.1801C43.8138 78.8821 43.6679 79.5787 43.3706 80.2158C43.0936 80.7728 42.6784 81.2509 42.1641 81.6049C41.6136 81.9813 40.9971 82.252 40.3462 82.4032C39.5868 82.578 38.8093 82.6637 38.0297 82.6587C35.9447 82.6635 33.9018 82.0762 32.1419 80.9663L34.0081 77.9645C34.294 78.1494 34.5923 78.3148 34.9008 78.4594C35.2468 78.6289 35.6011 78.7807 35.9626 78.9146C36.3237 79.0388 36.6916 79.1427 37.0645 79.2259C37.4052 79.3019 37.753 79.342 38.1021 79.3456C38.5855 79.3773 39.0702 79.3095 39.5259 79.146C39.6519 79.0828 39.7559 78.9838 39.8246 78.8614C39.8934 78.739 39.9238 78.5991 39.912 78.4594C39.9154 78.3318 39.8789 78.2062 39.8073 78.1003C39.7101 77.9693 39.5833 77.8627 39.4373 77.7889C39.1996 77.6696 38.9521 77.5708 38.6974 77.4935C38.3997 77.3976 38.0136 77.2939 37.5471 77.1822C36.8017 77.0143 36.066 76.8065 35.3433 76.5594C34.7839 76.3664 34.2616 76.0801 33.7989 75.7132C33.3916 75.385 33.0712 74.9629 32.8659 74.4837C32.6431 73.9281 32.5363 73.3333 32.5522 72.7355C32.5427 72.1154 32.6747 71.5013 32.9383 70.9392C33.2012 70.3921 33.5864 69.9116 34.0643 69.5341C34.5756 69.1256 35.1634 68.8218 35.7936 68.6399C36.5321 68.4212 37.2994 68.3134 38.07 68.3206C39.1259 68.3022 40.1785 68.4449 41.1908 68.7438C42.0542 69.0094 42.8689 69.4111 43.6038 69.9333L41.7941 72.9669C41.2121 72.5691 40.5826 72.2446 39.92 72.001C39.2718 71.7736 38.5885 71.6601 37.9011 71.6657C37.499 71.6169 37.0918 71.701 36.7428 71.9052C36.6533 71.9786 36.5821 72.0717 36.5346 72.1769C36.4872 72.2821 36.4649 72.3967 36.4693 72.5119C36.4785 72.6484 36.5285 72.7792 36.6132 72.8873C36.6977 72.9955 36.8129 73.076 36.9438 73.1187C37.5296 73.3644 38.1385 73.5516 38.7617 73.6774C39.5321 73.8602 40.2898 74.0922 41.03 74.372C41.6081 74.5852 42.1505 74.884 42.6387 75.2582C43.0412 75.5905 43.356 76.0152 43.5555 76.4956C43.7637 77.0327 43.8647 77.6047 43.8533 78.1801" fill="white"/>
<path d="M59.5451 73.1676C59.5695 73.9339 59.4267 74.6964 59.1268 75.403C58.8671 75.9879 58.4598 76.4965 57.9444 76.8798C57.404 77.2635 56.7913 77.5351 56.1427 77.6781C55.3826 77.8475 54.6051 77.9278 53.8262 77.9177H51.8877V82.4203H48.0912V68.5691H54.0996C54.852 68.5679 55.602 68.651 56.3357 68.8167C56.9525 68.966 57.5324 69.2376 58.0409 69.6151C58.5379 69.9793 58.9223 70.4743 59.151 71.044C59.432 71.7163 59.5664 72.44 59.5451 73.1676ZM55.6922 73.2234C55.7162 72.8213 55.5804 72.4259 55.3142 72.1218C55.1346 71.9637 54.924 71.8445 54.6955 71.7717C54.4669 71.6987 54.2258 71.674 53.987 71.6986H51.8877V74.8201H53.9387C54.4301 74.862 54.9192 74.7164 55.3062 74.4131C55.5861 74.0815 55.7246 73.6547 55.6922 73.2234Z" fill="white"/>
<path d="M67.3556 68.5691H63.4063V82.4363H67.3556V68.5691Z" fill="white"/>
<path d="M78.9952 71.9222V82.4283H75.1182V71.9222H71.209V68.5691H82.9042V71.9222H78.9952Z" fill="white"/>
<path d="M95.1291 82.4363L94.365 79.9934H90.1825L89.4182 82.4363H85.2679L90.3432 68.5691H94.2444L99.3197 82.4363H95.1291ZM93.1746 76.0496C93.0539 75.6026 92.9493 75.2034 92.8528 74.8761C92.7562 74.5486 92.6758 74.2453 92.6035 73.9979C92.5311 73.7503 92.4668 73.479 92.4185 73.2634C92.3703 73.0478 92.3139 72.8164 92.2737 72.5848C92.2737 72.8164 92.1852 73.0478 92.129 73.2714C92.0726 73.4949 92.0243 73.7424 91.9439 74.0138C91.8635 74.2852 91.783 74.5646 91.6946 74.8999C91.6061 75.2353 91.4935 75.6106 91.3809 76.0496L91.1154 76.9516H93.4319L93.1746 76.0496Z" fill="white"/>
<path d="M103.23 82.4283V68.5691H107.139V79.0832H113.324V82.4283H103.23Z" fill="white"/>
<path d="M42.8159 6.51441C42.8159 7.80284 42.431 9.06234 41.7098 10.1336C40.9886 11.2049 39.9636 12.0399 38.7642 12.5329C37.5648 13.026 36.2452 13.155 34.972 12.9037C33.6989 12.6523 32.5294 12.0319 31.6114 11.1208C30.6935 10.2098 30.0684 9.04899 29.8152 7.78532C29.5619 6.52163 29.6919 5.21181 30.1886 4.02145C30.6854 2.8311 31.5266 1.81369 32.606 1.09788C33.6854 0.382062 34.9544 0 36.2525 0C37.9932 0 39.6627 0.686337 40.8935 1.90803C42.1245 3.12972 42.8159 4.78668 42.8159 6.51441Z" fill="white"/>
</g>
<defs>
<clipPath id="clip0_1_1325">
<rect width="113.324" height="82.66" fill="white"/>
</clipPath>
</defs>
</svg>
