<svg width="22" height="22" viewBox="0 0 22 22" fill="none" xmlns="http://www.w3.org/2000/svg">
<g clip-path="url(#clip0_1_1275)">
<g clip-path="url(#clip1_1_1275)">
<path d="M2.133 3.1995C2.133 2.61049 2.61049 2.133 3.1995 2.133H5.49553C6.01688 2.133 6.46181 2.50991 6.54753 3.02416L7.336 7.75502C7.41297 8.21686 7.17974 8.67487 6.76097 8.88426L5.10987 9.70981C6.30041 12.6682 8.66177 15.0295 11.6202 16.2201L12.4457 14.569C12.6551 14.1502 13.1131 13.917 13.5749 13.994L18.3058 14.7824C18.8201 14.8682 19.197 15.3131 19.197 15.8344V18.1305C19.197 18.7195 18.7195 19.197 18.1305 19.197H15.9975C8.34035 19.197 2.133 12.9896 2.133 5.3325V3.1995Z" fill="white"/>
</g>
</g>
<defs>
<clipPath id="clip0_1_1275">
<rect width="21.33" height="21.33" fill="white"/>
</clipPath>
<clipPath id="clip1_1_1275">
<rect width="21.33" height="21.33" fill="white"/>
</clipPath>
</defs>
</svg>
