<svg width="27" height="27" viewBox="0 0 27 27" fill="none" xmlns="http://www.w3.org/2000/svg">
<path d="M11.3192 21.6612C9.90911 21.6612 8.55675 21.1011 7.55964 20.104C6.56255 19.1068 6.00238 17.7545 6.00238 16.3444C6.00238 14.9343 6.56255 13.5819 7.55964 12.5848C8.55675 11.5877 9.90911 11.0275 11.3192 11.0275H12.6174V13.6223H11.3192C10.78 13.6223 10.2528 13.7823 9.80442 14.0818C9.35603 14.3815 9.00656 14.8074 8.80019 15.3055C8.59383 15.8038 8.53983 16.3519 8.64503 16.8808C8.75024 17.4098 9.00992 17.8957 9.39124 18.2769C9.77256 18.6583 10.2584 18.9179 10.7873 19.0231C11.3162 19.1283 11.8644 19.0743 12.3627 18.8679C12.8609 18.6616 13.2867 18.3121 13.5863 17.8638C13.886 17.4154 14.0458 16.8882 14.0458 16.349V4.99875H16.6406V6.2954C16.6406 7.01854 16.9279 7.71206 17.4392 8.22338C17.9506 8.73472 18.6441 9.02198 19.3673 9.02198H20.6653V11.6122H19.3581C18.3971 11.6136 17.4541 11.3517 16.6315 10.8549V16.3444C16.6303 17.7533 16.0704 19.1043 15.0746 20.1011C14.0787 21.0978 12.7282 21.6588 11.3192 21.6612Z" fill="white"/>
</svg>
