<svg width="40" height="40" viewBox="0 0 40 40" fill="none" xmlns="http://www.w3.org/2000/svg">
<g clip-path="url(#clip0_1_757)">
<g clip-path="url(#clip1_1_757)">
<path d="M22.0942 5.26042H5.26051C4.14437 5.26042 3.07395 5.70381 2.28471 6.49304C1.49548 7.28227 1.05209 8.3527 1.05209 9.46884V30.511M1.05209 30.511V34.7194C1.05209 35.8356 1.49548 36.906 2.28471 37.6951C3.07395 38.4844 4.14437 38.9278 5.26051 38.9278H30.511C31.6272 38.9278 32.6976 38.4844 33.4868 37.6951C34.2761 36.906 34.7195 35.8356 34.7195 34.7194V26.3025M1.05209 30.511L10.702 20.861C11.4912 20.0721 12.5614 19.6289 13.6774 19.6289C14.7933 19.6289 15.8635 20.0721 16.6527 20.861L22.0942 26.3025M34.7195 26.3025V17.8857M34.7195 26.3025L31.3822 22.9653C30.593 22.1763 29.5228 21.7331 28.4068 21.7331C27.2909 21.7331 26.2207 22.1763 25.4315 22.9653L22.0942 26.3025M22.0942 26.3025L26.3026 30.511M30.511 5.26042H38.9279M34.7195 1.052V9.46884M22.0942 13.6773H22.1152" stroke="#9CA3AF" stroke-width="2.10421" stroke-linecap="round" stroke-linejoin="round"/>
</g>
</g>
<defs>
<clipPath id="clip0_1_757">
<rect width="39.98" height="39.98" fill="white"/>
</clipPath>
<clipPath id="clip1_1_757">
<rect width="39.98" height="39.98" fill="white"/>
</clipPath>
</defs>
</svg>
