<svg width="27" height="27" viewBox="0 0 27 27" fill="none" xmlns="http://www.w3.org/2000/svg">
<g clip-path="url(#clip0_1_1259)">
<path d="M21.2723 9.32193C20.9391 8.29644 19.8364 7.67539 18.8215 7.53299C15.171 7.14521 11.4898 7.14521 7.83935 7.53299C6.82446 7.67539 5.71867 8.29038 5.38844 9.32193C4.86889 11.9692 4.86889 14.6923 5.38844 17.3397C5.72169 18.3637 6.82446 18.9862 7.83935 19.1285C11.4898 19.5163 15.171 19.5163 18.8215 19.1285C19.8364 18.9862 20.9421 18.3711 21.2723 17.3397C21.7919 14.6923 21.7919 11.9692 21.2723 9.32193ZM11.337 16.5232V10.1369L16.5356 13.33C14.7831 14.407 13.082 15.4507 11.337 16.5232Z" fill="white"/>
</g>
<defs>
<clipPath id="clip0_1_1259">
<rect width="26.66" height="26.66" fill="white"/>
</clipPath>
</defs>
</svg>
